Coordinates
version=1
nRows=6
nColumns=36
inDegrees=yes

Units are S.I. units (second, meters, Newtons, ...)
If the header above contains a line with 'inDegrees', this indicates whether rotational values are in degrees (yes) or radians (no).

endheader
time	pelvis_tilt	pelvis_list	pelvis_rotation	pelvis_tx	pelvis_ty	pelvis_tz	hip_flexion_r	hip_adduction_r	hip_rotation_r	knee_angle_r	knee_angle_r_beta	ankle_angle_r	subtalar_angle_r	mtp_angle_r	hip_flexion_l	hip_adduction_l	hip_rotation_l	knee_angle_l	knee_angle_l_beta	ankle_angle_l	subtalar_angle_l	mtp_angle_l	lumbar_extension	lumbar_bending	lumbar_rotation	arm_flex_r	arm_add_r	arm_rot_r	elbow_flex_r	pro_sup_r	arm_flex_l	arm_add_l	arm_rot_l	elbow_flex_l	pro_sup_l
      0.00000000	     -9.35494387	     -3.80118784	      1.11012202	     -0.93319112	      1.24272865	     -0.11046938	     12.57757302	      1.44259004	      6.43368797	     10.41056127	      0.18169857	      2.06055286	    -20.44857707	     -5.81536665	     12.98396405	     -3.08496723	      4.77100498	      9.45951692	      0.16509972	      5.54037101	    -19.40338409	     -5.81536665	     -1.42932763	      4.00035914	     -2.48628643	      7.93104664	     -8.66632107	     33.44156062	     22.82097427	     69.42334379	      3.90762479	     -5.23307752	     32.45716177	     21.34068589	     60.07764884
      0.00416670	    -11.69851887	     -3.71806569	      0.99801915	     -0.93251653	      1.24082025	     -0.11135764	     15.81452947	      1.44469034	      6.73960230	     11.40605621	      0.19907324	      4.72307812	    -18.71752683	     -6.11386856	     15.96258586	     -2.24143966	      6.20289528	     10.06144903	      0.17560541	      5.32695409	    -19.99225362	     -6.11386856	      1.75993486	      3.99632052	     -2.30951944	      7.47318093	     -9.24676882	     37.01474770	     22.51112820	     70.70889557	      3.39515403	     -5.28539032	     35.33276203	     21.44046684	     61.26496299
      0.00833330	    -11.97163346	     -2.61747825	      0.72520783	     -0.93158614	      1.24154499	     -0.11000696	     15.93572807	      0.27672887	      6.34917680	     10.84867601	      0.18934512	      4.97901512	    -18.34145855	     -6.26385457	     15.82932765	     -1.14282195	      6.35510975	      9.54206238	      0.16654041	      4.54850427	    -21.23306229	     -6.26385457	      1.90997646	      2.57643467	     -2.03832364	      7.88809803	     -9.17690760	     40.25907489	     22.35647330	     72.30374367	      3.96908274	     -6.14352918	     38.89867636	     21.35918775	     62.69744650
      0.01250000	    -11.99280219	     -2.15568125	      0.57829519	     -0.93222211	      1.23895848	     -0.10994648	     16.09569726	     -0.20760705	      6.41391141	     10.91067552	      0.19042721	      4.99448157	    -18.61742092	     -6.46075923	     15.45431436	     -0.63411405	      7.06975752	      8.90326602	      0.15539131	      3.70350254	    -23.07986647	     -6.46075923	      1.71112269	      2.02625534	     -1.64314599	      8.17476309	     -9.10590561	     42.10503995	     21.98009051	     72.71613106	      4.33874173	     -6.53239155	     41.07426365	     21.31268176	     63.60379739
      0.01666670	    -11.54011296	     -1.81137739	      0.43967905	     -0.93161834	      1.24429815	     -0.10922433	     15.46000811	     -0.48524733	      6.63029260	     10.56385436	      0.18437404	      4.69447505	    -18.86816242	     -6.51782470	     14.52734314	     -0.29190543	      7.62660689	      8.13585866	      0.14199752	      2.87369075	    -24.24357730	     -6.51782470	      0.87880158	      1.59147331	     -1.45333452	      8.48931224	     -8.95554929	     42.80755310	     21.78484850	     73.54411579	      5.07787922	     -6.49034738	     42.34784964	     20.51980045	     64.37555697
      0.02083330	    -11.13240214	     -1.54248387	      0.42010184	     -0.93198300	      1.24792452	     -0.10929842	     14.84119355	     -0.70662348	      6.79302006	     10.14734058	      0.17710450	      4.39029269	    -19.04698918	     -6.88374468	     14.01798609	     -0.00572126	      7.98305526	      8.01950271	      0.13996673	      2.23381945	    -25.50698185	     -6.88374468	      0.28000944	      1.28354543	     -1.27993999	      8.57821494	     -8.92098289	     42.79357541	     21.70892808	     74.85613002	      5.41918927	     -6.70740998	     43.56309661	     19.98683476	     65.82607321
